<mxfile host="Electron" modified="2023-10-02T21:19:23.940Z" agent="Mozilla/5.0 (Windows NT 10.0; Win64; x64) AppleWebKit/537.36 (KHTML, like Gecko) draw.io/21.1.2 Chrome/106.0.5249.199 Electron/21.4.3 Safari/537.36" etag="ncd0P2K0urPxaG4DFPWo" version="21.1.2" type="device">
  <diagram name="Page-1" id="1rixsAQX8yy6chus7Yog">
    <mxGraphModel dx="1418" dy="820" grid="1" gridSize="10" guides="1" tooltips="1" connect="1" arrows="1" fold="1" page="1" pageScale="1" pageWidth="1169" pageHeight="827" math="0" shadow="0">
      <root>
        <mxCell id="0" />
        <mxCell id="1" parent="0" />
        <mxCell id="DTdvVk6uNhRWdhF_IYRA-11" style="edgeStyle=orthogonalEdgeStyle;rounded=0;orthogonalLoop=1;jettySize=auto;html=1;exitX=1;exitY=0.5;exitDx=0;exitDy=0;entryX=0.5;entryY=0;entryDx=0;entryDy=0;" edge="1" parent="1" source="DTdvVk6uNhRWdhF_IYRA-1" target="DTdvVk6uNhRWdhF_IYRA-9">
          <mxGeometry relative="1" as="geometry" />
        </mxCell>
        <mxCell id="DTdvVk6uNhRWdhF_IYRA-1" value="retrieve balance&lt;br&gt;from database" style="rounded=1;whiteSpace=wrap;html=1;" vertex="1" parent="1">
          <mxGeometry x="480" y="300" width="120" height="60" as="geometry" />
        </mxCell>
        <mxCell id="DTdvVk6uNhRWdhF_IYRA-4" style="edgeStyle=orthogonalEdgeStyle;rounded=0;orthogonalLoop=1;jettySize=auto;html=1;exitX=1;exitY=0.5;exitDx=0;exitDy=0;entryX=0;entryY=0.5;entryDx=0;entryDy=0;" edge="1" parent="1" source="DTdvVk6uNhRWdhF_IYRA-2" target="DTdvVk6uNhRWdhF_IYRA-3">
          <mxGeometry relative="1" as="geometry" />
        </mxCell>
        <mxCell id="DTdvVk6uNhRWdhF_IYRA-2" value="get balance" style="shape=process;whiteSpace=wrap;html=1;backgroundOutline=1;" vertex="1" parent="1">
          <mxGeometry x="190" y="160" width="150" height="46" as="geometry" />
        </mxCell>
        <mxCell id="DTdvVk6uNhRWdhF_IYRA-7" value="yes" style="edgeStyle=orthogonalEdgeStyle;rounded=0;orthogonalLoop=1;jettySize=auto;html=1;exitX=1;exitY=0.5;exitDx=0;exitDy=0;entryX=0;entryY=0.5;entryDx=0;entryDy=0;" edge="1" parent="1" source="DTdvVk6uNhRWdhF_IYRA-3" target="DTdvVk6uNhRWdhF_IYRA-6">
          <mxGeometry relative="1" as="geometry" />
        </mxCell>
        <mxCell id="DTdvVk6uNhRWdhF_IYRA-15" style="edgeStyle=orthogonalEdgeStyle;rounded=0;orthogonalLoop=1;jettySize=auto;html=1;entryX=0;entryY=0.5;entryDx=0;entryDy=0;" edge="1" parent="1" source="DTdvVk6uNhRWdhF_IYRA-3" target="DTdvVk6uNhRWdhF_IYRA-1">
          <mxGeometry relative="1" as="geometry">
            <Array as="points">
              <mxPoint x="420" y="330" />
            </Array>
          </mxGeometry>
        </mxCell>
        <mxCell id="DTdvVk6uNhRWdhF_IYRA-16" value="no" style="edgeStyle=orthogonalEdgeStyle;rounded=0;orthogonalLoop=1;jettySize=auto;html=1;exitX=0.5;exitY=1;exitDx=0;exitDy=0;entryX=0;entryY=0.5;entryDx=0;entryDy=0;" edge="1" parent="1" source="DTdvVk6uNhRWdhF_IYRA-3" target="DTdvVk6uNhRWdhF_IYRA-8">
          <mxGeometry x="-0.6255" relative="1" as="geometry">
            <mxPoint as="offset" />
          </mxGeometry>
        </mxCell>
        <mxCell id="DTdvVk6uNhRWdhF_IYRA-3" value="has cache" style="rhombus;whiteSpace=wrap;html=1;" vertex="1" parent="1">
          <mxGeometry x="380" y="143" width="80" height="80" as="geometry" />
        </mxCell>
        <mxCell id="DTdvVk6uNhRWdhF_IYRA-26" style="edgeStyle=orthogonalEdgeStyle;rounded=0;orthogonalLoop=1;jettySize=auto;html=1;exitX=1;exitY=0.5;exitDx=0;exitDy=0;entryX=0;entryY=0.5;entryDx=0;entryDy=0;" edge="1" parent="1" source="DTdvVk6uNhRWdhF_IYRA-6" target="DTdvVk6uNhRWdhF_IYRA-23">
          <mxGeometry relative="1" as="geometry" />
        </mxCell>
        <mxCell id="DTdvVk6uNhRWdhF_IYRA-6" value="return balance" style="shape=process;whiteSpace=wrap;html=1;backgroundOutline=1;" vertex="1" parent="1">
          <mxGeometry x="712.5" y="160" width="155" height="46" as="geometry" />
        </mxCell>
        <mxCell id="DTdvVk6uNhRWdhF_IYRA-12" style="edgeStyle=orthogonalEdgeStyle;rounded=0;orthogonalLoop=1;jettySize=auto;html=1;exitX=1;exitY=0.5;exitDx=0;exitDy=0;entryX=0.5;entryY=1;entryDx=0;entryDy=0;" edge="1" parent="1" source="DTdvVk6uNhRWdhF_IYRA-8" target="DTdvVk6uNhRWdhF_IYRA-9">
          <mxGeometry relative="1" as="geometry" />
        </mxCell>
        <mxCell id="DTdvVk6uNhRWdhF_IYRA-8" value="retrieve balance from unprocessed transactions" style="rounded=1;whiteSpace=wrap;html=1;" vertex="1" parent="1">
          <mxGeometry x="480" y="404" width="120" height="60" as="geometry" />
        </mxCell>
        <mxCell id="DTdvVk6uNhRWdhF_IYRA-13" style="edgeStyle=orthogonalEdgeStyle;rounded=0;orthogonalLoop=1;jettySize=auto;html=1;exitX=1;exitY=0.5;exitDx=0;exitDy=0;entryX=0;entryY=0.5;entryDx=0;entryDy=0;" edge="1" parent="1" source="DTdvVk6uNhRWdhF_IYRA-9" target="DTdvVk6uNhRWdhF_IYRA-10">
          <mxGeometry relative="1" as="geometry" />
        </mxCell>
        <mxCell id="DTdvVk6uNhRWdhF_IYRA-9" value="&lt;font style=&quot;font-size: 30px;&quot;&gt;+&lt;/font&gt;" style="ellipse;whiteSpace=wrap;html=1;aspect=fixed;" vertex="1" parent="1">
          <mxGeometry x="640" y="360" width="40" height="40" as="geometry" />
        </mxCell>
        <mxCell id="DTdvVk6uNhRWdhF_IYRA-18" style="edgeStyle=orthogonalEdgeStyle;rounded=0;orthogonalLoop=1;jettySize=auto;html=1;exitX=0.5;exitY=0;exitDx=0;exitDy=0;entryX=0.5;entryY=1;entryDx=0;entryDy=0;" edge="1" parent="1" source="DTdvVk6uNhRWdhF_IYRA-10" target="DTdvVk6uNhRWdhF_IYRA-17">
          <mxGeometry relative="1" as="geometry" />
        </mxCell>
        <mxCell id="DTdvVk6uNhRWdhF_IYRA-10" value="compute balance" style="rounded=1;whiteSpace=wrap;html=1;" vertex="1" parent="1">
          <mxGeometry x="730" y="350" width="120" height="60" as="geometry" />
        </mxCell>
        <mxCell id="DTdvVk6uNhRWdhF_IYRA-19" style="edgeStyle=orthogonalEdgeStyle;rounded=0;orthogonalLoop=1;jettySize=auto;html=1;exitX=0.5;exitY=0;exitDx=0;exitDy=0;" edge="1" parent="1" source="DTdvVk6uNhRWdhF_IYRA-17" target="DTdvVk6uNhRWdhF_IYRA-6">
          <mxGeometry relative="1" as="geometry" />
        </mxCell>
        <mxCell id="DTdvVk6uNhRWdhF_IYRA-17" value="save on cache" style="rounded=1;whiteSpace=wrap;html=1;" vertex="1" parent="1">
          <mxGeometry x="730" y="240" width="120" height="60" as="geometry" />
        </mxCell>
        <mxCell id="DTdvVk6uNhRWdhF_IYRA-20" value="" style="ellipse;html=1;shape=startState;fillColor=#000000;strokeColor=#ff0000;" vertex="1" parent="1">
          <mxGeometry x="130" y="168" width="30" height="30" as="geometry" />
        </mxCell>
        <mxCell id="DTdvVk6uNhRWdhF_IYRA-21" value="" style="edgeStyle=orthogonalEdgeStyle;html=1;verticalAlign=bottom;endArrow=open;endSize=8;strokeColor=#ff0000;rounded=0;entryX=0;entryY=0.5;entryDx=0;entryDy=0;" edge="1" source="DTdvVk6uNhRWdhF_IYRA-20" parent="1" target="DTdvVk6uNhRWdhF_IYRA-2">
          <mxGeometry relative="1" as="geometry">
            <mxPoint x="155" y="233" as="targetPoint" />
          </mxGeometry>
        </mxCell>
        <mxCell id="DTdvVk6uNhRWdhF_IYRA-23" value="" style="ellipse;html=1;shape=endState;fillColor=#000000;strokeColor=#ff0000;" vertex="1" parent="1">
          <mxGeometry x="920" y="168" width="30" height="30" as="geometry" />
        </mxCell>
      </root>
    </mxGraphModel>
  </diagram>
</mxfile>
